<svg width="39" height="39" viewBox="0 0 39 39" fill="none" xmlns="http://www.w3.org/2000/svg">
<path d="M17.5 33.5H28.5C30.3565 33.5 32.137 32.7625 33.4497 31.4497C34.7625 30.137 35.5 28.3565 35.5 26.5C35.5 24.6435 34.7625 22.863 33.4497 21.5503C32.137 20.2375 30.3565 19.5 28.5 19.5H12.5C10.6435 19.5 8.86301 18.7625 7.55025 17.4497C6.2375 16.137 5.5 14.3565 5.5 12.5C5.5 10.6435 6.2375 8.86301 7.55025 7.55025C8.86301 6.2375 10.6435 5.5 12.5 5.5H21.5M1.5 33.5C1.5 34.5609 1.92143 35.5783 2.67157 36.3284C3.42172 37.0786 4.43913 37.5 5.5 37.5C6.56087 37.5 7.57828 37.0786 8.32843 36.3284C9.07857 35.5783 9.5 34.5609 9.5 33.5C9.5 32.4391 9.07857 31.4217 8.32843 30.6716C7.57828 29.9214 6.56087 29.5 5.5 29.5C4.43913 29.5 3.42172 29.9214 2.67157 30.6716C1.92143 31.4217 1.5 32.4391 1.5 33.5ZM33.5 9.5C34.5609 9.5 35.5783 9.07857 36.3284 8.32843C37.0786 7.57828 37.5 6.56087 37.5 5.5C37.5 4.43913 37.0786 3.42172 36.3284 2.67157C35.5783 1.92143 34.5609 1.5 33.5 1.5C32.4391 1.5 31.4217 1.92143 30.6716 2.67157C29.9214 3.42172 29.5 4.43913 29.5 5.5C29.5 6.56087 29.9214 7.57828 30.6716 8.32843C31.4217 9.07857 32.4391 9.5 33.5 9.5Z" stroke="#27C051" stroke-width="3" stroke-linecap="round" stroke-linejoin="round"/>
</svg>
