<svg width="34" height="36" viewBox="0 0 34 36" fill="none" xmlns="http://www.w3.org/2000/svg">
<path d="M25.0526 3.6C24.578 3.6 24.1229 3.41036 23.7873 3.07279C23.4517 2.73523 23.2632 2.27739 23.2632 1.8C23.2632 1.32261 23.4517 0.864773 23.7873 0.527208C24.1229 0.189642 24.578 0 25.0526 0H32.2105C32.6851 0 33.1403 0.189642 33.4759 0.527208C33.8115 0.864773 34 1.32261 34 1.8V9C34 9.47739 33.8115 9.93523 33.4759 10.2728C33.1403 10.6104 32.6851 10.8 32.2105 10.8C31.7359 10.8 31.2808 10.6104 30.9452 10.2728C30.6096 9.93523 30.4211 9.47739 30.4211 9V6.1452L20.0546 16.5726C19.7191 16.91 19.264 17.0996 18.7895 17.0996C18.315 17.0996 17.8599 16.91 17.5243 16.5726L12.5263 11.5452L3.05463 21.0726C2.71713 21.4005 2.26511 21.5819 1.79591 21.5778C1.32672 21.5737 0.877897 21.3844 0.546114 21.0507C0.214331 20.7169 0.0261342 20.2655 0.0220571 19.7935C0.0179799 19.3216 0.198349 18.8669 0.524316 18.5274L11.2612 7.7274C11.5967 7.38995 12.0518 7.20038 12.5263 7.20038C13.0008 7.20038 13.4559 7.38995 13.7915 7.7274L18.7895 12.7548L27.8907 3.6H25.0526ZM3.57895 28.8V34.2C3.57895 34.6774 3.39041 35.1352 3.05482 35.4728C2.71923 35.8104 2.26407 36 1.78947 36C1.31488 36 0.859716 35.8104 0.524125 35.4728C0.188533 35.1352 0 34.6774 0 34.2V28.8C0 28.3226 0.188533 27.8648 0.524125 27.5272C0.859716 27.1896 1.31488 27 1.78947 27C2.26407 27 2.71923 27.1896 3.05482 27.5272C3.39041 27.8648 3.57895 28.3226 3.57895 28.8ZM12.5263 21.6C12.5263 21.1226 12.3378 20.6648 12.0022 20.3272C11.6666 19.9896 11.2114 19.8 10.7368 19.8C10.2622 19.8 9.80709 19.9896 9.47149 20.3272C9.1359 20.6648 8.94737 21.1226 8.94737 21.6V34.2C8.94737 34.6774 9.1359 35.1352 9.47149 35.4728C9.80709 35.8104 10.2622 36 10.7368 36C11.2114 36 11.6666 35.8104 12.0022 35.4728C12.3378 35.1352 12.5263 34.6774 12.5263 34.2V21.6ZM19.6842 23.4C20.1588 23.4 20.614 23.5896 20.9496 23.9272C21.2852 24.2648 21.4737 24.7226 21.4737 25.2V34.2C21.4737 34.6774 21.2852 35.1352 20.9496 35.4728C20.614 35.8104 20.1588 36 19.6842 36C19.2096 36 18.7545 35.8104 18.4189 35.4728C18.0833 35.1352 17.8947 34.6774 17.8947 34.2V25.2C17.8947 24.7226 18.0833 24.2648 18.4189 23.9272C18.7545 23.5896 19.2096 23.4 19.6842 23.4ZM30.4211 16.2C30.4211 15.7226 30.2325 15.2648 29.8969 14.9272C29.5613 14.5896 29.1062 14.4 28.6316 14.4C28.157 14.4 27.7018 14.5896 27.3662 14.9272C27.0306 15.2648 26.8421 15.7226 26.8421 16.2V34.2C26.8421 34.6774 27.0306 35.1352 27.3662 35.4728C27.7018 35.8104 28.157 36 28.6316 36C29.1062 36 29.5613 35.8104 29.8969 35.4728C30.2325 35.1352 30.4211 34.6774 30.4211 34.2V16.2Z" fill="#0D67F9"/>
</svg>
