<svg width="24" height="24" viewBox="0 0 24 24" fill="none" xmlns="http://www.w3.org/2000/svg">
<g clip-path="url(#clip0_4_80)">
<path fill-rule="evenodd" clip-rule="evenodd" d="M14.9383 0.068573C15.2793 0.068573 15.6063 0.204032 15.8474 0.44515C16.0886 0.686268 16.224 1.01329 16.224 1.35429V3.39086H13.6526V1.35429C13.6526 1.01329 13.788 0.686268 14.0292 0.44515C14.2703 0.204032 14.5973 0.068573 14.9383 0.068573ZM10.344 3.39086V1.35429C10.344 1.01329 10.2086 0.686268 9.96744 0.44515C9.72632 0.204032 9.39929 0.068573 9.0583 0.068573C8.71731 0.068573 8.39028 0.204032 8.14916 0.44515C7.90804 0.686268 7.77258 1.01329 7.77258 1.35429V3.39086H10.344ZM3.42859 7.73829H1.34058C0.999592 7.73829 0.672566 7.87375 0.431448 8.11486C0.190329 8.35598 0.0548706 8.68301 0.0548706 9.024C0.0548706 9.36499 0.190329 9.69202 0.431448 9.93314C0.672566 10.1743 0.999592 10.3097 1.34058 10.3097H3.42859V7.73829ZM3.42859 13.6183H1.34058C0.999592 13.6183 0.672566 13.7537 0.431448 13.9949C0.190329 14.236 0.0548706 14.563 0.0548706 14.904C0.0548706 15.245 0.190329 15.572 0.431448 15.8131C0.672566 16.0543 0.999592 16.1897 1.34058 16.1897H3.42859V13.6183ZM7.7743 20.532V22.6457C7.7743 22.9867 7.90976 23.3137 8.15088 23.5549C8.39199 23.796 8.71902 23.9314 9.06001 23.9314C9.40101 23.9314 9.72803 23.796 9.96915 23.5549C10.2103 23.3137 10.3457 22.9867 10.3457 22.6457V20.532H7.7743ZM13.6543 20.532V22.6457C13.6543 22.9867 13.7898 23.3137 14.0309 23.5549C14.272 23.796 14.599 23.9314 14.94 23.9314C15.281 23.9314 15.608 23.796 15.8492 23.5549C16.0903 23.3137 16.2257 22.9867 16.2257 22.6457V20.532H13.6543ZM20.5714 16.188H22.6612C23.0021 16.188 23.3292 16.0525 23.5703 15.8114C23.8114 15.5703 23.9469 15.2433 23.9469 14.9023C23.9469 14.5613 23.8114 14.2343 23.5703 13.9931C23.3292 13.752 23.0021 13.6166 22.6612 13.6166H20.5697V16.188H20.5714ZM20.5714 10.308H22.6612C23.0021 10.308 23.3292 10.1725 23.5703 9.93142C23.8114 9.69031 23.9469 9.36328 23.9469 9.02229C23.9469 8.68129 23.8114 8.35427 23.5703 8.11315C23.3292 7.87203 23.0021 7.73657 22.6612 7.73657H20.5697V10.308H20.5714Z" fill="#2859C5"/>
<path fill-rule="evenodd" clip-rule="evenodd" d="M5.99831 3.39087C5.31632 3.39087 4.66227 3.66179 4.18003 4.14402C3.6978 4.62626 3.42688 5.28031 3.42688 5.9623V17.9623C3.42688 18.6443 3.6978 19.2983 4.18003 19.7806C4.66227 20.2628 5.31632 20.5337 5.99831 20.5337H17.9983C18.6803 20.5337 19.3343 20.2628 19.8166 19.7806C20.2988 19.2983 20.5697 18.6443 20.5697 17.9623V5.9623C20.5697 5.28031 20.2988 4.62626 19.8166 4.14402C19.3343 3.66179 18.6803 3.39087 17.9983 3.39087H5.99831Z" fill="#8FBFFA"/>
<path fill-rule="evenodd" clip-rule="evenodd" d="M13.2789 7.78285C12.9651 6.40628 11.004 6.41485 10.7023 7.79314L10.6903 7.84457L10.6697 7.94228C10.516 8.63194 10.1608 9.26036 9.64922 9.7478C9.13767 10.2352 8.49284 10.5597 7.79657 10.68C6.36 10.9303 6.36172 12.9926 7.79657 13.2429C8.49519 13.3639 9.14185 13.6905 9.65393 14.1809C10.166 14.6713 10.5203 15.3033 10.6714 15.996L10.7023 16.1297C11.004 17.508 12.9651 17.5166 13.2789 16.1417L13.3131 15.984C13.4718 15.2939 13.8305 14.6659 14.3443 14.1787C14.8581 13.6914 15.5042 13.3665 16.2017 13.2446C17.64 12.9943 17.64 10.9303 16.2017 10.6783C15.5083 10.5567 14.8658 10.2346 14.3536 9.75163C13.8414 9.26869 13.4821 8.64619 13.32 7.96114L13.2926 7.84114L13.2789 7.78285Z" fill="#2859C5"/>
</g>
<defs>
<clipPath id="clip0_4_80">
<rect width="24" height="24" fill="white"/>
</clipPath>
</defs>
</svg>
