<svg width="35" height="39" viewBox="0 0 35 39" fill="none" xmlns="http://www.w3.org/2000/svg">
<path d="M9.5 1.5H5.5C4.43913 1.5 3.42172 1.92143 2.67157 2.67157C1.92143 3.42172 1.5 4.43913 1.5 5.5V33.5C1.5 34.5609 1.92143 35.5783 2.67157 36.3284C3.42172 37.0786 4.43913 37.5 5.5 37.5H29.5C30.5609 37.5 31.5783 37.0786 32.3284 36.3284C33.0786 35.5783 33.5 34.5609 33.5 33.5V5.5C33.5 4.43913 33.0786 3.42172 32.3284 2.67157C31.5783 1.92143 30.5609 1.5 29.5 1.5H21.5M9.5 1.5V19.5L15.5 13.5L21.5 19.5V1.5M9.5 1.5H21.5" stroke="#F6A107" stroke-width="3" stroke-linecap="round" stroke-linejoin="round"/>
</svg>
