<svg width="16" height="22" viewBox="0 0 16 22" fill="none" xmlns="http://www.w3.org/2000/svg">
<path fill-rule="evenodd" clip-rule="evenodd" d="M11 0C11.3511 8.91844e-06 11.6959 0.0924258 12 0.267962C12.304 0.443498 12.5565 0.695969 12.732 1H14C14.5304 1 15.0391 1.21071 15.4142 1.58579C15.7893 1.96086 16 2.46957 16 3V15C16 16.3261 15.4732 17.5979 14.5355 18.5355C13.5979 19.4732 12.3261 20 11 20H2C1.46957 20 0.960859 19.7893 0.585786 19.4142C0.210714 19.0391 0 18.5304 0 18V3C0 2.46957 0.210714 1.96086 0.585786 1.58579C0.960859 1.21071 1.46957 1 2 1H3.268C3.44353 0.695969 3.696 0.443498 4.00003 0.267962C4.30406 0.0924258 4.64894 8.91844e-06 5 0H11ZM3 3H2V18H11C11.7956 18 12.5587 17.6839 13.1213 17.1213C13.6839 16.5587 14 15.7956 14 15V3H13C13 3.53043 12.7893 4.03914 12.4142 4.41421C12.0391 4.78929 11.5304 5 11 5H5C4.46957 5 3.96086 4.78929 3.58579 4.41421C3.21071 4.03914 3 3.53043 3 3ZM12.238 7.379C12.4255 7.56653 12.5308 7.82084 12.5308 8.086C12.5308 8.35116 12.4255 8.60547 12.238 8.793L7.288 13.743C7.10047 13.9305 6.84616 14.0358 6.581 14.0358C6.31584 14.0358 6.06153 13.9305 5.874 13.743L3.754 11.621C3.57621 11.4317 3.47905 11.1806 3.48309 10.9209C3.48712 10.6612 3.59203 10.4133 3.77561 10.2296C3.95919 10.0459 4.20705 9.9408 4.46673 9.93658C4.72641 9.93237 4.97755 10.0293 5.167 10.207L6.582 11.621L10.824 7.379C11.0115 7.19153 11.2658 7.08621 11.531 7.08621C11.7962 7.08621 12.0505 7.19153 12.238 7.379ZM11 2H5V3H11V2Z" fill="#0D66F8"/>
</svg>
