<svg width="50" height="50" viewBox="0 0 50 50" fill="none" xmlns="http://www.w3.org/2000/svg">
<path d="M42.6156 7.38438L47.8531 8.43126C48.1344 8.48751 48.3656 8.69376 48.4469 8.97188C48.4879 9.10698 48.4916 9.25068 48.4574 9.3877C48.4233 9.52471 48.3527 9.64992 48.2531 9.75001L43.9625 14.0438C43.4484 14.555 42.7532 14.8425 42.0281 14.8438H38.4688L29.5312 23.7844C29.7018 24.4282 29.7331 25.101 29.6232 25.7579C29.5133 26.4147 29.2647 27.0407 28.894 27.5939C28.5232 28.1472 28.0388 28.6151 27.473 28.9665C26.9072 29.3179 26.2731 29.5447 25.6128 29.6317C24.9525 29.7188 24.2812 29.6642 23.6437 29.4715C23.0062 29.2788 22.417 28.9524 21.9155 28.5142C21.414 28.0759 21.0116 27.5358 20.7352 26.9299C20.4588 26.3239 20.3147 25.666 20.3125 25C20.3123 24.2807 20.4777 23.571 20.7959 22.9259C21.114 22.2808 21.5763 21.7175 22.147 21.2797C22.7178 20.8419 23.3816 20.5414 24.0871 20.4013C24.7926 20.2612 25.5209 20.2853 26.2156 20.4719L35.1562 11.5281V7.97501C35.1562 7.25001 35.4437 6.55313 35.9562 6.04063L40.25 1.74688C40.3501 1.64728 40.4753 1.57667 40.6123 1.54256C40.7493 1.50844 40.893 1.51209 41.0281 1.55313C41.3062 1.63438 41.5125 1.86563 41.5688 2.14688L42.6156 7.38438Z" fill="#0D66F8"/>
<path d="M6.24998 25C6.25319 27.6811 6.83137 30.3304 7.9455 32.7691C9.05964 35.2077 10.6838 37.3791 12.7085 39.1367C14.7332 40.8943 17.1112 42.1973 19.6823 42.9577C22.2533 43.718 24.9575 43.9182 27.6125 43.5446C30.2675 43.1711 32.8115 42.2324 35.0729 40.7921C37.3342 39.3517 39.2604 37.4431 40.7214 35.195C42.1825 32.947 43.1444 30.4117 43.5423 27.7603C43.9402 25.1088 43.7649 22.4029 43.0281 19.825C42.9247 19.5238 42.8836 19.2047 42.9074 18.8872C42.9312 18.5696 43.0194 18.2602 43.1666 17.9778C43.3138 17.6955 43.5169 17.446 43.7636 17.2446C44.0103 17.0432 44.2954 16.8942 44.6015 16.8065C44.9077 16.7188 45.2284 16.6943 45.5443 16.7346C45.8602 16.7748 46.1646 16.8789 46.439 17.0406C46.7134 17.2022 46.952 17.418 47.1403 17.6748C47.3286 17.9316 47.4627 18.2241 47.5344 18.5344C48.961 23.5266 48.69 28.8513 46.7639 33.6729C44.8378 38.4945 41.3655 42.5404 36.8919 45.1756C32.4183 47.8109 27.1964 48.8865 22.0454 48.2337C16.8945 47.5809 12.106 45.2367 8.43123 41.5687C4.76042 37.8948 2.41365 33.1059 1.75937 27.9538C1.10508 22.8017 2.18033 17.5782 4.8163 13.1033C7.45227 8.62852 11.4997 5.15581 16.3231 3.23042C21.1465 1.30504 26.4727 1.03603 31.4656 2.46561C32.0601 2.6394 32.5617 3.04145 32.8606 3.5839C33.1596 4.12635 33.2317 4.76509 33.0612 5.36054C32.8906 5.95598 32.4913 6.45971 31.9505 6.76164C31.4097 7.06357 30.7713 7.13915 30.175 6.97186C27.383 6.17014 24.443 6.02807 21.5867 6.55686C18.7304 7.08566 16.0361 8.27084 13.7162 10.019C11.3963 11.7671 9.51429 14.0303 8.2186 16.6301C6.92291 19.2299 6.24899 22.0952 6.24998 25Z" fill="#0D66F8"/>
<path d="M15.625 25C15.6252 26.7081 16.0917 28.3838 16.9743 29.8462C17.8568 31.3086 19.1219 32.5023 20.6331 33.2986C22.1442 34.0948 23.8441 34.4634 25.5493 34.3645C27.2545 34.2657 28.9004 33.7031 30.3094 32.7375C31.7181 31.7695 32.8354 30.4348 33.5404 28.8777C34.2455 27.3207 34.5114 25.6005 34.3094 23.9032C34.2548 23.4913 34.3109 23.0723 34.4721 22.6894C34.6332 22.3064 34.8935 21.9733 35.2261 21.7244C35.5588 21.4754 35.9518 21.3197 36.3646 21.2731C36.7775 21.2265 37.1953 21.2908 37.575 21.4594C37.9547 21.6258 38.2834 21.8899 38.5277 22.2248C38.772 22.5597 38.9231 22.9533 38.9657 23.3657C39.3052 26.266 38.7335 29.2001 37.3298 31.7607C35.9261 34.3213 33.7601 36.3814 31.1324 37.6551C28.5047 38.9288 25.5456 39.3529 22.666 38.8686C19.7863 38.3842 17.1288 37.0154 15.0624 34.9521C12.996 32.8888 11.6232 30.2335 11.1344 27.3545C10.6457 24.4756 11.0653 21.5159 12.335 18.8863C13.6047 16.2567 15.6615 14.0875 18.22 12.6799C20.7785 11.2724 23.7117 10.6961 26.6125 11.0313C26.9231 11.0601 27.2249 11.1507 27.5 11.2976C27.7752 11.4445 28.0183 11.6449 28.215 11.887C28.4117 12.1291 28.5581 12.4081 28.6456 12.7075C28.7331 13.0069 28.76 13.3208 28.7246 13.6307C28.6893 13.9406 28.5924 14.2404 28.4397 14.5124C28.287 14.7844 28.0815 15.0232 27.8353 15.2148C27.5891 15.4063 27.3072 15.5468 27.006 15.628C26.7048 15.7092 26.3904 15.7294 26.0813 15.6875C24.7677 15.535 23.4367 15.6621 22.1758 16.0605C20.9148 16.4589 19.7524 17.1195 18.7649 17.999C17.7773 18.8785 16.9871 19.957 16.4459 21.1636C15.9048 22.3702 15.625 23.6777 15.625 25Z" fill="#0D66F8"/>
</svg>
