<svg width="50" height="50" viewBox="0 0 50 50" fill="none" xmlns="http://www.w3.org/2000/svg">
<path d="M37.5 2.5067e-07C38.7614 -0.000398948 39.9764 0.476016 40.9014 1.33374C41.8263 2.19147 42.3929 3.36711 42.4875 4.625L42.5 5V10H45C46.2614 9.9996 47.4764 10.476 48.4014 11.3337C49.3263 12.1915 49.8929 13.3671 49.9875 14.625L50 15V37.5C50.0004 38.7614 49.524 39.9764 48.6663 40.9014C47.8085 41.8263 46.6329 42.3929 45.375 42.4875L45 42.5H35C34.1896 42.4998 33.3914 42.3027 32.6741 41.9255C31.9568 41.5484 31.342 41.0025 30.8825 40.335L30.67 40H5C3.73856 40.0004 2.52358 39.524 1.59863 38.6663C0.673677 37.8085 0.107109 36.6329 0.0125005 35.375L2.5067e-07 35V5C-0.000398948 3.73856 0.476016 2.52358 1.33374 1.59863C2.19147 0.673677 3.36711 0.107109 4.625 0.0125005L5 2.5067e-07H37.5ZM45 15H35V37.5H45V15ZM37.5 5H5V35H30V15C30 13.6739 30.5268 12.4021 31.4645 11.4645C32.4021 10.5268 33.6739 10 35 10H37.5V5Z" fill="#855AF7"/>
</svg>
