<svg width="19" height="19" viewBox="0 0 19 19" fill="none" xmlns="http://www.w3.org/2000/svg">
<path d="M15.1403 0C14.7346 0.00110589 14.3332 0.0824561 13.9592 0.239364C13.5851 0.396273 13.2458 0.625639 12.9608 0.91425L1.101 12.7733L1.0545 13.008L0.234 17.133L0 18.234L1.10175 18L5.22675 17.1795L5.46075 17.1323L17.3205 5.27325C17.61 4.98879 17.8399 4.64953 17.9968 4.27526C18.1538 3.90099 18.2346 3.49922 18.2346 3.09338C18.2346 2.68753 18.1538 2.28576 17.9968 1.91149C17.8399 1.53722 17.61 1.19796 17.3205 0.9135C17.0353 0.624934 16.6959 0.395656 16.3217 0.238874C15.9475 0.0820928 15.546 0.000908889 15.1403 0ZM15.1403 1.4295C15.5183 1.4295 15.8993 1.602 16.2653 1.96875C16.995 2.69775 16.995 3.489 16.2653 4.21875L15.7267 4.734L13.4993 2.50725L14.0153 1.96875C14.382 1.602 14.7622 1.4295 15.1403 1.4295ZM12.4455 3.5625L14.6715 5.78925L5.60175 14.8583C5.11266 13.8999 4.33298 13.1207 3.37425 12.6323L12.4455 3.5625ZM2.41425 13.8518C2.85822 14.0302 3.2615 14.2966 3.59984 14.6349C3.93818 14.9732 4.20457 15.3765 4.383 15.8205L1.9215 16.3125L2.41425 13.8518Z" fill="#26C151"/>
</svg>
