<svg width="60" height="60" viewBox="0 0 60 60" fill="none" xmlns="http://www.w3.org/2000/svg">
<path d="M31.755 5.4875L49.255 12.05C50.2083 12.4073 51.0297 13.0471 51.6096 13.8839C52.1895 14.7206 52.5001 15.7145 52.5 16.7325V30.14C52.5001 34.3186 51.3366 38.4146 49.1398 41.9691C46.9431 45.5237 43.7999 48.3963 40.0625 50.265L31.6775 54.4575C31.1567 54.718 30.5823 54.8536 30 54.8536C29.4177 54.8536 28.8433 54.718 28.3225 54.4575L19.9375 50.265C16.2001 48.3963 13.0569 45.5237 10.8602 41.9691C8.66343 38.4146 7.49991 34.3186 7.5 30.14V16.7325C7.49987 15.7145 7.81051 14.7206 8.39038 13.8839C8.97026 13.0471 9.79173 12.4073 10.745 12.05L28.245 5.4875C29.3766 5.06333 30.6234 5.06333 31.755 5.4875ZM30 10.17L12.5 16.7325V30.14C12.5006 33.3897 13.406 36.575 15.1148 39.3391C16.8236 42.1032 19.2683 44.3369 22.175 45.79L30 49.7075L37.825 45.795C40.7325 44.3416 43.1777 42.1071 44.8865 39.342C46.5954 36.5769 47.5004 33.3905 47.5 30.14V16.7325L30 10.17ZM30 20C31.0672 19.9996 32.1065 20.3406 32.9659 20.9732C33.8254 21.6057 34.4599 22.4967 34.7767 23.5158C35.0935 24.5348 35.0759 25.6285 34.7265 26.6369C34.3772 27.6452 33.7143 28.5154 32.835 29.12L32.5 29.3325V37.5C32.4993 38.1372 32.2553 38.7501 31.8179 39.2134C31.3805 39.6768 30.7826 39.9556 30.1465 39.9929C29.5104 40.0303 28.8841 39.8233 28.3954 39.4143C27.9068 39.0054 27.5928 38.4252 27.5175 37.7925L27.5 37.5V29.3325C26.5456 28.7827 25.7995 27.9331 25.3775 26.9158C24.9554 25.8984 24.8812 24.7701 25.1662 23.7062C25.4512 22.6423 26.0795 21.7022 26.9536 21.0321C27.8277 20.3619 28.8986 19.9991 30 20Z" fill="#27C051"/>
</svg>
