<svg width="24" height="30" viewBox="0 0 24 30" fill="none" xmlns="http://www.w3.org/2000/svg">
<path fill-rule="evenodd" clip-rule="evenodd" d="M9.18261 0H14.8188C16.6948 0 18.2061 -2.07923e-08 19.395 0.163256C20.6292 0.330698 21.6687 0.693488 22.4943 1.53209C23.3198 2.37209 23.6736 3.42977 23.8409 4.68558C24 5.89535 24 7.43442 24 9.34186V20.6581C24 22.5656 24 24.1047 23.8409 25.3144C23.675 26.5702 23.3198 27.6279 22.4943 28.4679C21.6687 29.3079 20.6292 29.6679 19.395 29.8381C18.2061 30 16.6935 30 14.8188 30H9.18261C7.30799 30 5.79539 30 4.60644 29.8381C3.37223 29.6679 2.33275 29.3079 1.5072 28.4679C0.681646 27.6279 0.327839 26.5702 0.161906 25.3144C0.10743 24.8775 0.0699173 24.4385 0.049456 23.9986C-0.00542552 23.8215 -0.0129985 23.6327 0.0275145 23.4516C0.00494866 22.5207 -0.0037376 21.5894 0.00145883 20.6581V9.34186C0.00145883 7.43442 0.00145897 5.89535 0.161906 4.68558C0.326468 3.42977 0.683017 2.37209 1.50857 1.53209C2.33275 0.692093 3.3736 0.332093 4.60781 0.163256C5.79539 -2.07923e-08 7.30799 0 9.18261 0ZM2.0955 23.7209C2.11607 24.2135 2.14899 24.6474 2.19973 25.0353C2.33549 26.0595 2.5837 26.6009 2.96219 26.9874C3.34206 27.374 3.87551 27.6251 4.88208 27.7633C5.91744 27.9042 7.29016 27.907 9.25804 27.907H14.7434C16.7127 27.907 18.0854 27.9042 19.1208 27.7633C20.1273 27.6251 20.6594 27.3726 21.0406 26.9874C21.3094 26.714 21.511 26.3609 21.655 25.814H6.51535C6.24257 25.814 5.98097 25.7037 5.78808 25.5074C5.5952 25.3112 5.48684 25.045 5.48684 24.7674C5.48684 24.4899 5.5952 24.2237 5.78808 24.0274C5.98097 23.8312 6.24257 23.7209 6.51535 23.7209H21.906C21.932 23.1195 21.9402 22.4302 21.9416 21.6279H6.37547C5.0343 21.6279 4.5653 21.6363 4.206 21.7353C3.72216 21.8669 3.27705 22.1162 2.90911 22.4619C2.54117 22.8076 2.26146 23.2392 2.09413 23.7195M21.9416 19.5335H6.2164C5.09464 19.5335 4.32942 19.5335 3.67255 19.7121C3.0954 19.8709 2.54941 20.1295 2.05848 20.4767V9.4186C2.05848 7.41628 2.06122 6.01814 2.19973 4.96465C2.33549 3.94046 2.5837 3.39907 2.96219 3.01256C3.34206 2.62605 3.87551 2.37488 4.88208 2.23674C5.91744 2.09581 7.29016 2.09302 9.25804 2.09302H14.7434C16.7127 2.09302 18.0854 2.09581 19.1208 2.23674C20.1273 2.37488 20.6594 2.62744 21.0406 3.01256C21.4191 3.39907 21.666 3.94046 21.8017 4.96605C21.9416 6.01814 21.943 7.41628 21.943 9.4186L21.9416 19.5335ZM5.48684 8.02326C5.48684 7.7457 5.5952 7.47952 5.78808 7.28326C5.98097 7.087 6.24257 6.97674 6.51535 6.97674H17.4861C17.7589 6.97674 18.0205 7.087 18.2134 7.28326C18.4063 7.47952 18.5146 7.7457 18.5146 8.02326C18.5146 8.30081 18.4063 8.56699 18.2134 8.76325C18.0205 8.95951 17.7589 9.06977 17.4861 9.06977H6.51535C6.24257 9.06977 5.98097 8.95951 5.78808 8.76325C5.5952 8.56699 5.48684 8.30081 5.48684 8.02326ZM5.48684 12.907C5.48684 12.6294 5.5952 12.3632 5.78808 12.167C5.98097 11.9707 6.24257 11.8605 6.51535 11.8605H13.3721C13.6449 11.8605 13.9065 11.9707 14.0993 12.167C14.2922 12.3632 14.4006 12.6294 14.4006 12.907C14.4006 13.1845 14.2922 13.4507 14.0993 13.647C13.9065 13.8432 13.6449 13.9535 13.3721 13.9535H6.51535C6.24257 13.9535 5.98097 13.8432 5.78808 13.647C5.5952 13.4507 5.48684 13.1845 5.48684 12.907Z" fill="#855AF7"/>
</svg>
