<svg width="22" height="19" viewBox="0 0 22 19" fill="none" xmlns="http://www.w3.org/2000/svg">
<path d="M15 5.51137C16.333 7.28937 16.333 10.7334 15 12.5114M18 2.01137C21.988 5.81937 22.012 12.2284 18 16.0114M1 11.9704V6.05137C1 5.47737 1.448 5.01137 2 5.01137H5.586C5.71833 5.0109 5.8492 4.98363 5.97071 4.93121C6.09222 4.87879 6.20185 4.80231 6.293 4.70637L9.293 1.31837C9.923 0.662366 11 1.12737 11 2.05437V15.9684C11 16.9024 9.91 17.3634 9.284 16.6944L6.294 13.3254C6.20259 13.2267 6.09185 13.1479 5.96867 13.0939C5.84549 13.0399 5.71251 13.0118 5.578 13.0114H2C1.448 13.0114 1 12.5454 1 11.9704Z" stroke="#845AF6" stroke-width="2" stroke-linecap="round" stroke-linejoin="round"/>
</svg>
