<svg width="33" height="37" viewBox="0 0 33 37" fill="none" xmlns="http://www.w3.org/2000/svg">
<path d="M32.4187 22.7062L28.4812 18.7687C27.9562 18.2437 27.1687 18.2437 26.6437 18.7687L14.4375 30.975V36.75H20.2125L32.4187 24.5438C32.9437 24.0188 32.9437 23.2312 32.4187 22.7062ZM19.1625 34.125H17.0625V32.025L23.625 25.4625L25.725 27.5625L19.1625 34.125ZM27.5625 25.725L25.4625 23.625L27.5625 21.525L29.6625 23.625L27.5625 25.725ZM6.5625 27.5625H9.1875V30.1875H6.5625V27.5625ZM11.8125 21H17.0625V23.625H11.8125V21ZM6.5625 21H9.1875V23.625H6.5625V21ZM11.8125 14.4375H22.3125V17.0625H11.8125V14.4375ZM6.5625 14.4375H9.1875V17.0625H6.5625V14.4375Z" fill="#0D66F8"/>
<path d="M2.625 34.125V6.5625H6.5625V10.5H22.3125V6.5625H26.25V14.4375H28.875V6.5625C28.875 5.11875 27.6938 3.9375 26.25 3.9375H22.3125V2.625C22.3125 1.18125 21.1313 0 19.6875 0H9.1875C7.74375 0 6.5625 1.18125 6.5625 2.625V3.9375H2.625C1.18125 3.9375 0 5.11875 0 6.5625V34.125C0 35.5687 1.18125 36.75 2.625 36.75H9.1875V34.125H2.625ZM9.1875 2.625H19.6875V7.875H9.1875V2.625Z" fill="#0D66F8"/>
</svg>
