<svg width="26" height="29" viewBox="0 0 26 29" fill="none" xmlns="http://www.w3.org/2000/svg">
<path d="M12.9995 15.6667V1L23.6662 6.33333L12.9995 11.6667" stroke="#F6A107" stroke-width="2" stroke-linecap="round" stroke-linejoin="round"/>
<path d="M24.4142 11.9627C25.1238 14.1495 25.1902 16.4942 24.6055 18.7177C24.0208 20.9412 22.8098 22.9499 21.1163 24.5049C19.4229 26.0599 17.3184 27.0957 15.0532 27.4891C12.788 27.8825 10.4575 27.6169 8.33898 26.7239C6.22042 25.8309 4.40298 24.3481 3.10289 22.4519C1.8028 20.5557 1.07478 18.3259 1.00546 16.0279C0.936134 13.7299 1.52842 11.4603 2.71185 9.48918C3.89527 7.51807 5.62003 5.92842 7.68091 4.90933" stroke="#F6A107" stroke-width="2" stroke-linecap="round" stroke-linejoin="round"/>
<path d="M7.66891 11.6627C7.00078 12.552 6.56582 13.5944 6.40364 14.6949C6.24146 15.7954 6.35722 16.919 6.74038 17.9633C7.12354 19.0076 7.76192 19.9394 8.59735 20.6738C9.43278 21.4083 10.4387 21.922 11.5235 22.1682C12.6083 22.4144 13.7374 22.3853 14.808 22.0834C15.8787 21.7816 16.8568 21.2167 17.6532 20.4401C18.4496 19.6635 19.0391 18.7 19.3679 17.6374C19.6967 16.5747 19.7543 15.4466 19.5356 14.356" stroke="#F6A107" stroke-width="2" stroke-linecap="round" stroke-linejoin="round"/>
</svg>
