<svg width="464" height="420" viewBox="0 0 464 420" fill="none" xmlns="http://www.w3.org/2000/svg">
<path d="M0.5 381.063L2 337.063C85.5384 332.761 124.873 352.915 185 419.063C106.784 379.347 65.5132 367.509 0.5 381.063Z" fill="#0036B3"/>
<path d="M463.5 381.062C403.54 368.444 365.743 376.169 290 419.563C329 356.063 396 326.563 461 337.063L463.5 381.062Z" fill="#128A8C"/>
<path d="M249.924 215.857C277.703 191.409 327.125 141.461 327.125 95.625C327.125 70.2637 317.05 45.9411 299.117 28.0079C281.184 10.0747 256.861 0 231.5 0C206.139 0 181.816 10.0747 163.883 28.0079C145.95 45.9411 135.875 70.2637 135.875 95.625C135.875 141.461 185.281 191.409 213.076 215.857C218.146 220.383 224.704 222.884 231.5 222.884C238.296 222.884 244.854 220.383 249.924 215.857ZM199.625 95.625C199.625 87.1712 202.983 79.0637 208.961 73.086C214.939 67.1082 223.046 63.75 231.5 63.75C239.954 63.75 248.061 67.1082 254.039 73.086C260.017 79.0637 263.375 87.1712 263.375 95.625C263.375 104.079 260.017 112.186 254.039 118.164C248.061 124.142 239.954 127.5 231.5 127.5C223.046 127.5 214.939 124.142 208.961 118.164C202.983 112.186 199.625 104.079 199.625 95.625Z" fill="#F49F06"/>
<path d="M463.5 337.562L450.5 155.062C446.044 138.378 438.094 133.663 413 134.562C348.775 137.058 319.064 154.77 275 209.562C303.735 217.38 317 225.062 316 238.062C315 251.062 303.983 256.575 270 268.062C236.017 279.55 214 277.562 212 293.562C210 309.562 248 313.062 284.5 326.562C321 340.062 326.739 352.075 329 374.562C378.918 340.33 408.353 331.945 463.5 337.562Z" fill="#2CC9CA"/>
<path d="M36.5 134.15C115.21 132.304 155.43 159.295 221 251.65C221 251.65 191 257.15 175 263.65C159 270.15 145.5 282.15 147.5 298.65C149.5 315.15 160.142 324.443 185.5 337.15C217.276 350.641 225.665 358.073 228 371.15C229.136 390.854 215.526 401.131 185.5 419.15C127.818 357.572 90.6932 332.625 0 337.15L12 156.65C13.8356 141.849 19.5117 137.165 36.5 134.15Z" fill="#0973FB"/>
</svg>
